<?xml version="1.0" encoding="UTF-8"?>
<svg id="_レイヤー_2" data-name="レイヤー 2" xmlns="http://www.w3.org/2000/svg" viewBox="0 0 292.66 153.49">
  <defs>
    <style>
      .cls-1 {
        fill: #004c82;
      }
    </style>
  </defs>
  <g id="_レイヤー_1-2" data-name="レイヤー 1">
    <g>
      <path class="cls-1" d="M64.7,116.84c-2.21.71-6.06,2.34-7.8,5.42-.07.12-.13.24-.19.36-.03.06-.06.11-.09.17h.01c-.39.92-.41,1.8.03,2.47.95,1.43,3.65,1.31,6.04-.27,2.39-1.58,3.56-4.02,2.62-5.45-.15-.23-.36-.42-.6-.57.2-.07.39-.14.6-.2,3.45-1.11,7.25-1.26,8.84-.36l1-1.76c-2.46-1.4-7.03-.91-10.46.19Z"/>
      <path class="cls-1" d="M154.92,106.51s-18.88-7.21-55.94-3.5c-21.24,2.13-37.65,7.16-45.04,13.61-3.62,3.15-5.21,6.68-4.74,10.49.55,4.5,3.41,8.41,8.52,11.71h0s.09.05.13.08c4.95,3.17,11.98,5.77,21.07,7.79,14.18,3.15,29.91,3.98,36.24,3.98,7.45,0,19.94-.71,30.66-2.71,13.12-2.45,19.78-6.13,19.78-10.93,0-8.57-18.6-11.01-36.58-13.38-13.56-1.78-28.93-3.8-28.93-8.27,0-1.53,2.29-5.33,23.51-7.51,12.03-1.24,31.33-1.36,31.33-1.36ZM70.07,141.43c6.01-.3,11.64-2.56,14.41-5.82l-1.54-1.31c-4.14,4.88-15.89,7.12-23.94,2.92-4.36-2.78-7.28-6.19-7.79-10.36-.38-3.1.98-6.03,4.06-8.72,5.68-4.96,16.48-8.6,28.98-10.96,1.97-.24,27.7-5.09,38.82-.84-20.8,1.54-25.03,6.31-25.03,9.04,0,6.25,14.22,8.11,30.69,10.28,11.71,1.54,23.59,2.73,30.86,6.56-17.47,20.98-72.81,13.66-89.52,9.21Z"/>
    </g>
    <g>
      <path class="cls-1" d="M230.96,112.3c-6.14,0-11.73,2.07-16.91,5.17l4.28,8.07c3.93-2.21,7.18-3.45,10.28-3.45,4,0,5.66,1.86,5.93,5.04-15.32,1.66-21.8,6.14-21.8,14.42,0,6.56,4.42,11.94,11.66,11.94,4.35,0,8-2,11.25-4.9h.34l.83,3.93h10v-22.29c0-12.28-5.73-17.94-15.87-17.94ZM234.55,140.87c-1.79,1.93-3.45,3.1-5.93,3.1s-4.21-1.1-4.21-3.38c0-2.76,2.48-5.04,10.14-6v6.28Z"/>
      <path class="cls-1" d="M277.27,112.3c-3.59,0-7.25,1.59-10.14,4.21l.34-5.87v-15.59h25.04V10.29H81.14L86.7.01H0s35.24,95.06,35.24,95.06l.02-.04v.02h140.13v57.48h32.36v-10.35h-20.01v-47.13h67.45v57.48h9.59l.97-4.21h.34c3.04,3.38,6.62,5.17,10.07,5.17,8.42,0,16.49-7.73,16.49-21.32,0-12.01-6-19.87-15.39-19.87ZM63.36,77.13c-12.12,0-22.37-8.33-22.37-24.49s10.64-25,22.76-25c6.22,0,11.22,2.88,14.49,6.22l-6.03,7.31c-2.37-2.18-4.87-3.72-8.27-3.72-6.15,0-11.22,5.51-11.22,14.81s4.36,15,11.09,15c3.78,0,6.86-1.92,9.1-4.36l6.03,7.18c-4.04,4.68-9.36,7.05-15.58,7.05ZM131.17,76.24h-10.45v-16.34c0-4.74.9-11.86,1.47-16.54h-.26l-3.97,11.41-6.41,17.43h-6.28l-6.47-17.43-3.85-11.41h-.26c.58,4.68,1.47,11.79,1.47,16.54v16.34h-10.26V28.55h12.37l7.56,20.58c.96,2.76,1.73,5.77,2.63,8.72h.32c.96-2.95,1.73-5.96,2.63-8.72l7.31-20.58h12.43v47.69ZM155.65,77.13c-6.22,0-12.88-2.31-17.82-6.86l6.47-7.88c3.4,2.88,7.82,4.87,11.6,4.87,4.23,0,6.22-1.6,6.22-4.17,0-2.76-2.63-3.65-6.73-5.39l-6.09-2.56c-5-1.99-9.68-6.15-9.68-13.08,0-8.01,7.18-14.42,17.31-14.42,5.51,0,11.34,2.11,15.51,6.28l-5.7,7.18c-3.14-2.37-6.09-3.65-9.81-3.65-3.53,0-5.71,1.41-5.71,3.97s3.01,3.65,7.24,5.32l5.96,2.37c5.9,2.37,9.42,6.35,9.42,13.08,0,7.95-6.67,14.93-18.2,14.93ZM192.86,76.95c-7.68,0-13.47-5.63-13.47-15.41s6.35-15.52,13.64-15.52c3.92,0,6.57,1.77,8.61,3.59l-1.82,2.21c-1.82-1.71-3.98-2.98-6.74-2.98-5.85,0-10.33,5.19-10.33,12.7s4.09,12.64,10.27,12.64c3.04,0,5.69-1.49,7.68-3.26l1.55,2.21c-2.54,2.21-5.69,3.81-9.39,3.81ZM219.09,76.95c-7.12,0-13.31-5.63-13.31-15.41s6.19-15.52,13.31-15.52,13.31,5.69,13.31,15.52-6.19,15.41-13.31,15.41ZM249.4,48.9c-2.6,0-5.41,1.77-8.5,5.3v22.03h-3.2v-29.43h2.65l.39,4.47h.11c2.65-2.93,5.96-5.25,9.28-5.25,4.69,0,7.07,2.37,8.12,5.96,3.31-3.59,6.52-5.96,9.94-5.96,5.91,0,8.84,3.81,8.84,11.38v18.83h-3.2v-18.39c0-6.13-2.04-8.95-6.35-8.95-2.65,0-5.36,1.77-8.5,5.3v22.03h-3.2v-18.39c0-6.13-1.99-8.95-6.35-8.95ZM273.27,143.42c-1.86,0-3.93-.55-5.8-2.28v-15.52c2.07-2.28,3.93-3.31,6.21-3.31,4.35,0,6.35,3.24,6.35,10.14,0,7.87-3.04,10.97-6.76,10.97Z"/>
      <path class="cls-1" d="M219.09,48.85c-5.74,0-9.94,5.19-9.94,12.7s4.2,12.64,9.94,12.64,9.99-5.14,9.99-12.64-4.25-12.7-9.99-12.7Z"/>
    </g>
  </g>
</svg>